<?xml version="1.0" encoding="UTF-8" standalone="no"?>
<!DOCTYPE svg PUBLIC "-//W3C//DTD SVG 1.1//EN" "http://www.w3.org/Graphics/SVG/1.1/DTD/svg11.dtd">
<svg version="1.1" xmlns="http://www.w3.org/2000/svg" xmlns:xlink="http://www.w3.org/1999/xlink" preserveAspectRatio="xMidYMid meet" viewBox="0 0 512 512" width="512" height="512"><defs><path d="M502 256C502 391.77 391.77 502 256 502C120.23 502 10 391.77 10 256C10 120.23 120.23 10 256 10C391.77 10 502 120.23 502 256Z" id="guoJob4xG"></path><path d="M93.62 363.35L93.62 148.65L418.38 148.65L418.38 363.35L93.62 363.35ZM253.94 291.78L124.06 203.66L124.06 334.72L387.94 334.72L387.94 200.3L254.35 290.94L253.94 291.78ZM253.53 250.19L360.97 177.28L146.07 177.28L253.53 250.19Z" id="c1IDTTUJ2H"></path></defs><g><g><g><use xlink:href="#guoJob4xG" opacity="1" fill="#222222" fill-opacity="1"></use><g><use xlink:href="#guoJob4xG" opacity="1" fill-opacity="0" stroke="#ffffff" stroke-width="10" stroke-opacity="1"></use></g><g><filter id="shadow12076906" x="1" y="1" width="511" height="511" filterUnits="userSpaceOnUse" primitiveUnits="userSpaceOnUse"><feFlood></feFlood><feComposite in2="SourceAlpha" operator="out"></feComposite><feGaussianBlur stdDeviation="1"></feGaussianBlur><feOffset dx="1" dy="1" result="afterOffset"></feOffset><feFlood flood-color="#ffffff" flood-opacity="0.8"></feFlood><feComposite in2="afterOffset" operator="in"></feComposite><feMorphology operator="dilate" radius="1"></feMorphology><feComposite in2="SourceAlpha" operator="in"></feComposite></filter><path d="M502 256C502 391.77 391.77 502 256 502C120.23 502 10 391.77 10 256C10 120.23 120.23 10 256 10C391.77 10 502 120.23 502 256Z" id="bf9DZbsL" fill="white" fill-opacity="1" filter="url(#shadow12076906)"></path></g></g><g><use xlink:href="#c1IDTTUJ2H" opacity="1" fill="#ffffff" fill-opacity="1"></use></g></g></g></svg>